<svg width="339" height="424" viewBox="0 0 339 424" fill="none" xmlns="http://www.w3.org/2000/svg">
<path d="M196.503 335.284C67.6082 364.855 78.9824 401.883 78.9824 401.883C78.9824 401.883 86.0335 422.839 209.83 394.437C333.627 366.036 334.036 343.369 334.036 343.369C334.036 343.369 325.397 305.713 196.503 335.284Z" fill="#DAE7E8"/>
<path d="M85.6549 299.43L104.312 380.753C104.519 381.654 107.989 395.15 124.134 391.446L123.99 391.554L286.223 354.335L286.047 354.3C302.76 350.466 299.213 335.983 299.213 335.983L299.269 336.063L280.592 254.652L280.577 254.748C280.577 254.748 277.438 240.172 260.742 244.002L98.8294 281.148C82.6924 284.887 85.4481 298.528 85.6549 299.43Z" fill="#F48814"/>
<path d="M198.225 374.527C183.894 372.121 165.819 367.167 149.529 357.04C123.369 340.804 107.93 298.529 102.329 280.386L98.8651 281.181C82.72 284.885 85.4796 298.544 85.6865 299.446L104.343 380.768C104.55 381.67 108.02 395.166 124.166 391.462L124.022 391.569L198.229 374.545L198.225 374.527Z" fill="#EA7E0A"/>
<path d="M280.613 254.663L280.598 254.76C280.598 254.76 277.46 240.183 260.764 244.013L98.8333 281.163C91.1071 282.936 87.7002 286.992 86.2821 290.835C88.3018 288.473 91.4732 286.406 96.4109 285.273L258.324 248.127C275.037 244.293 278.158 258.874 278.158 258.874L278.173 258.777L296.85 340.189L296.795 340.108C296.795 340.108 297.809 344.286 296.162 348.758C300.957 343.173 299.199 336.002 299.199 336.002L299.255 336.083L280.578 254.671L280.613 254.663Z" fill="#E17706"/>
<path d="M138.399 308.471L147.849 349.663C147.954 350.123 149.71 356.959 157.898 355.081L157.817 355.137L239.981 336.287L239.884 336.272C248.339 334.332 246.563 326.998 246.563 326.998L246.593 327.047L237.134 285.82L237.129 285.877C237.129 285.877 235.548 278.498 227.076 280.442L145.071 299.255C136.897 301.112 138.297 308.029 138.399 308.471Z" fill="#FFC149"/>
<path d="M169.923 352.352C158.227 349.452 150.188 343.015 144.751 336.186L147.842 349.657C147.947 350.117 149.703 356.953 157.891 355.075L157.81 355.131L169.923 352.352V352.352Z" fill="#FCB63A"/>
<path d="M237.134 285.801L237.128 285.859C237.128 285.859 235.548 278.48 227.075 280.423L145.071 299.237C141.501 300.056 139.759 301.833 138.931 303.604C139.882 302.939 141.113 302.359 142.73 301.988L224.734 283.175C233.188 281.235 234.787 288.61 234.787 288.61L234.792 288.553L244.251 329.78L244.221 329.731C244.221 329.731 244.82 332.181 243.682 334.637C247.736 331.772 246.558 326.962 246.558 326.962L246.588 327.011L237.134 285.801V285.801Z" fill="#F9CC7D"/>
<path d="M218.212 304.373L162.992 317.042C162.992 317.042 158.296 318.007 159.594 323.664C160.892 329.322 165.563 328.25 165.563 328.25L220.766 315.586C220.766 315.586 225.437 314.514 224.139 308.857C222.841 303.199 218.212 304.373 218.212 304.373Z" fill="#F9CC7D"/>
<path d="M175.759 173.37L148.247 179.682L161.842 238.941L189.355 232.629L175.759 173.37Z" fill="#FFC149"/>
<path d="M152.928 200.226L177.139 179.523L175.727 173.371L148.215 179.683L152.928 200.226Z" fill="#FCB63A"/>
<path d="M150.695 252.879L205.897 240.215C205.897 240.215 206.968 225.566 174.962 232.909C142.973 240.247 150.695 252.879 150.695 252.879Z" fill="#FFC149"/>
<path d="M150.693 252.883L167.62 248.999C163.68 245.437 161.762 240.908 160.829 237.494C145.601 244.542 150.693 252.883 150.693 252.883Z" fill="#FCB63A"/>
<path d="M198.406 237.017C198.788 238.846 198.843 240.471 198.695 241.863L205.889 240.213C205.889 240.213 206.413 232.965 195.6 231.222C196.808 232.657 197.878 234.551 198.406 237.017Z" fill="#F9CC7D"/>
<path d="M174.96 232.243C162.403 235.123 161.413 236.838 161.44 237.204C161.44 237.204 177.997 230.728 188.985 231.033C188.999 231.011 187.517 229.362 174.96 232.243Z" fill="#F7A521"/>
<path d="M132 273.567L229.173 251.274C229.173 251.274 230.182 231.632 176.809 243.877C123.383 256.134 132 273.567 132 273.567Z" fill="#FFC149"/>
<path d="M141.323 257.108C128.207 265.868 132.009 273.556 132.009 273.556L154.992 268.283C148.399 264.808 144.071 260.609 141.323 257.108Z" fill="#FCB63A"/>
<path d="M176.822 243.895C145.207 251.148 135.32 260.209 132.514 266.398C136.975 260.499 148.16 253.02 175.051 246.851C182.209 245.209 188.396 244.143 193.729 243.515C193.645 245.674 194.502 249.981 202.651 250.214C210.876 250.449 212.233 245.69 212.419 243.321C222.606 244.78 225.886 249.052 226.926 251.791L229.199 251.269C229.185 251.291 230.195 231.65 176.822 243.895Z" fill="#F9CC7D"/>
<path d="M195.945 239.548C185.43 240.49 159.565 247.057 160.239 248.447C160.239 248.447 190.44 239.024 206.019 239.861C206.019 239.861 206.461 238.606 195.945 239.548Z" fill="#F7A521"/>
<path d="M95.386 134.936C90.0954 120.35 51.2066 148.626 43.0993 111.332C34.9921 74.0377 65.8118 80.7566 65.8498 83.8557C65.8877 86.9547 70.046 95.1379 77.8066 89.1146C85.5712 83.1089 78.7481 75.779 78.7481 75.779C78.7481 75.779 30.1064 57.3866 36.4612 112.631C42.2523 163.056 82.1311 132.413 84.4884 138.776C86.8456 145.139 74.7508 147.021 82.0002 154.253C89.2495 161.485 100.677 149.522 95.386 134.936Z" fill="#FFC149"/>
<path d="M77.7961 89.1278C82.0983 85.796 81.9104 82.0429 80.9047 79.3705C80.9047 79.3705 78.2143 85.9799 72.9262 86.3185C67.634 86.6394 65.8393 83.8689 65.8393 83.8689C65.8772 86.968 70.0314 95.1335 77.7961 89.1278Z" fill="#FCB63A"/>
<path d="M95.3693 134.926C94.2526 131.851 91.6471 130.681 88.126 130.409C90.1375 135.103 93.0047 144.178 88.2949 150.134C86.1941 152.793 84.2477 154.17 82.5598 154.799C89.8297 160.817 100.513 149.117 95.3693 134.926Z" fill="#FCB63A"/>
<path d="M36.4588 112.635C37.7869 124.129 40.8808 131.421 44.8988 135.896C44.8988 135.896 32.9027 114.493 38.3843 94.2165C43.8659 73.9402 61.9768 72.8557 61.9986 72.8693C48.6082 72.8522 32.6543 79.5084 36.4588 112.635Z" fill="#F9CC7D"/>
<path d="M81.6084 145.917C79.6751 148.166 78.2224 150.472 81.9853 154.242C82.0847 154.35 82.2019 154.453 82.2973 154.543C84.1373 151.888 82.8715 148.326 81.6084 145.917Z" fill="#F9CC7D"/>
<path d="M200.676 110.788C199.08 95.3549 246.405 103.851 237.445 66.7528C228.486 29.6542 203.677 49.1354 204.993 51.9411C206.31 54.7468 206.135 63.9242 196.525 61.886C186.919 59.8655 189.864 50.2944 189.864 50.2944C189.864 50.2944 225.625 12.5386 243.986 65.0289C260.754 112.935 211.506 102.739 212.158 109.494C212.81 116.248 224.516 112.67 221.144 122.338C217.772 132.007 202.255 126.225 200.676 110.788Z" fill="#FFC149"/>
<path d="M196.512 61.9028C191.187 60.7795 189.721 57.3197 189.461 54.4762C189.461 54.4762 194.763 59.252 199.67 57.2516C204.573 55.2336 204.981 51.9579 204.981 51.9579C206.315 54.7595 206.118 63.9233 196.512 61.9028Z" fill="#FCB63A"/>
<path d="M200.68 110.781C200.345 107.527 202.18 105.338 205.23 103.559C205.466 108.66 206.841 118.077 213.676 121.385C216.726 122.862 219.078 123.253 220.871 123.084C216.934 131.673 202.219 125.8 200.68 110.781Z" fill="#FCB63A"/>
<path d="M243.985 65.0233C247.8 75.9465 248.194 83.8581 246.529 89.637C246.529 89.637 247.996 65.1454 234.224 49.2861C220.452 33.4268 203.68 40.3453 203.666 40.367C215.692 34.5188 232.97 33.5512 243.985 65.0233Z" fill="#F9CC7D"/>
<path d="M217.854 114.656C220.574 115.837 222.887 117.279 221.144 122.312C221.101 122.452 221.041 122.597 220.994 122.719C218.181 121.131 217.749 117.378 217.854 114.656Z" fill="#F9CC7D"/>
<path d="M187.036 26.1021L75.441 51.704C75.441 51.704 80.0175 195.361 160.992 176.784C241.966 158.207 187.036 26.1021 187.036 26.1021Z" fill="#FFC149"/>
<path d="M94.6037 57.1742C100.598 50.6255 169.16 33.6866 188.254 29.0641C187.512 27.1316 187.083 26.0762 187.083 26.0762L75.4879 51.6781C75.4879 51.6781 80.0644 195.335 161.039 176.758C175.976 173.331 186.304 166.03 193.184 156.412C185.141 162.835 173.684 168.311 158.168 168.074C121.357 167.513 87.6369 64.7833 94.6037 57.1742Z" fill="#FCB63A"/>
<path d="M187.055 26.1053L183.467 26.9285C189.741 49.5509 216.562 156.598 167.839 174.848C238.78 150.515 187.055 26.1053 187.055 26.1053Z" fill="#F9CC7D"/>
<path d="M182.624 121.232C182.624 121.232 191.832 120.459 192.313 103.73C192.794 87.0019 185.26 83.9851 185.26 83.9851C185.26 83.9851 177.034 81.8711 176.049 100.967C175.047 120.067 182.624 121.232 182.624 121.232Z" fill="#F9CC7D"/>
<path d="M179.004 138.269C179.004 138.269 183.354 138.815 185.195 132.252C187.164 125.268 181.156 123.855 181.156 123.855C181.156 123.855 175.813 123.871 174.937 131.218C174.079 138.561 179.004 138.269 179.004 138.269Z" fill="#F9CC7D"/>
<path d="M183.025 165.886L137.183 176.403C137.183 176.403 133.29 177.203 134.365 181.888C135.44 186.573 139.316 185.702 139.316 185.702L185.158 175.185C185.158 175.185 189.03 174.297 187.951 169.594C186.872 164.892 183.025 165.886 183.025 165.886Z" fill="#FFC149"/>
<path d="M143.533 174.95L137.21 176.401C137.21 176.401 133.318 177.201 134.392 181.886C135.467 186.571 139.343 185.7 139.343 185.7L145.524 184.282C143.939 180.552 143.548 177.217 143.533 174.95Z" fill="#FCB63A"/>
<path d="M187.977 169.612C186.903 164.927 183.051 165.904 183.051 165.904L181.204 166.328C182.25 167.223 183.239 168.596 183.709 170.647C184.167 172.645 184.001 174.283 183.586 175.57L185.184 175.203C185.162 175.189 189.052 174.297 187.977 169.612Z" fill="#F9CC7D"/>
<path d="M168.612 169.193L160.921 170.958L163.054 180.257L170.745 178.492L168.612 169.193Z" fill="#F9CC7D"/>
<path d="M188.134 16.4269L69.0972 43.7361C69.0972 43.7361 64.626 44.5386 65.7008 49.2235C66.7756 53.9084 71.1495 52.6816 71.1495 52.6816L190.186 25.3724C190.186 25.3724 194.658 24.5699 193.583 19.885C192.508 15.2001 188.134 16.4269 188.134 16.4269Z" fill="#FFC149"/>
<path d="M78.0845 41.6743L69.0972 43.7361C69.0972 43.7361 64.626 44.5386 65.7008 49.2235C66.7756 53.9084 71.1495 52.6816 71.1495 52.6816L79.7105 50.7176C78.5999 47.3435 78.2058 44.1587 78.0845 41.6743Z" fill="#FCB63A"/>
<path d="M188.169 16.4265L187.423 16.5977C188.556 18.4405 189.816 21.408 189.866 25.4535L190.221 25.372C190.221 25.372 194.692 24.5696 193.617 19.8846C192.543 15.1997 188.169 16.4265 188.169 16.4265Z" fill="#F9CC7D"/>
<path d="M148.378 25.5479L142.801 26.8274L144.854 35.7729L150.431 34.4934L148.378 25.5479Z" fill="#F9CC7D"/>
<path d="M139.625 27.5536L110.407 34.2566L112.459 43.2021L141.677 36.4991L139.625 27.5536Z" fill="#F9CC7D"/>
</svg>
